<?xml version="1.0" encoding="UTF-8" standalone="no"?>
<svg
   version="1.1"
   width="612pt"
   height="792pt"
   id="svg114"
   viewBox="0 0 612 792"
   sodipodi:docname="chavez-seeklogo.cdr"
   xmlns:inkscape="http://www.inkscape.org/namespaces/inkscape"
   xmlns:sodipodi="http://sodipodi.sourceforge.net/DTD/sodipodi-0.dtd"
   xmlns:xlink="http://www.w3.org/1999/xlink"
   xmlns="http://www.w3.org/2000/svg"
   xmlns:svg="http://www.w3.org/2000/svg">
  <sodipodi:namedview
     id="namedview116"
     pagecolor="#ffffff"
     bordercolor="#000000"
     borderopacity="0.25"
     inkscape:showpageshadow="2"
     inkscape:pageopacity="0.0"
     inkscape:pagecheckerboard="0"
     inkscape:deskcolor="#d1d1d1"
     inkscape:document-units="pt" />
  <defs
     id="defs8">
    <linearGradient
       id="grad1">
      <stop
         offset="0%"
         stop-color="#005ca5"
         stop-opacity="1.0000"
         id="stop2" />
      <stop
         offset="100%"
         stop-color="#ffffff"
         stop-opacity="1.0000"
         id="stop4" />
    </linearGradient>
    <linearGradient
       xlink:href="#grad1"
       id="grad2"
       x1="0"
       y1="0"
       x2="0"
       y2="1"
       gradientTransform="rotate(-2,0.5,0.5)"
       gradientUnits="objectBoundingBox" />
  </defs>
  <path
     d="m 133.4898,208.3376 h 34.1958 l -4.4603,33.4524 h 23.045 l 4.4603,-33.8241 h 33.8241 l -13.0093,93.6668 h -34.1958 l 4.4604,-34.5675 h -21.93 l -4.832,34.5675 h -34.939 z"
     style="fill:url(#grad2)"
     id="path10" />
  <defs
     id="defs18">
    <linearGradient
       id="grad3">
      <stop
         offset="0%"
         stop-color="#005ca5"
         stop-opacity="1.0000"
         id="stop12" />
      <stop
         offset="100%"
         stop-color="#ffffff"
         stop-opacity="1.0000"
         id="stop14" />
    </linearGradient>
    <linearGradient
       xlink:href="#grad3"
       id="grad4"
       x1="0"
       y1="0"
       x2="0"
       y2="1"
       gradientTransform="rotate(-2,0.5,0.5)"
       gradientUnits="objectBoundingBox" />
  </defs>
  <path
     d="m 259.4939,208.3376 h 44.975 l 14.496,93.6668 h -34.5673 l -1.8587,-14.8678 h -26.3902 l -6.3188,15.2395 h -34.1958 z m 5.4811,56.2651 h 14.9457 l -3.2315,-29.0836 c 0,0 -11.7142,28.6796 -11.7142,29.0836 z"
     style="fill:url(#grad4)"
     id="path20" />
  <path
     d="m 269.5297,202.3905 h 17.4696 l 14.1243,-15.6112 h -22.6731 z"
     style="fill:#2a76a3;fill-rule:evenodd"
     id="path22" />
  <defs
     id="defs30">
    <linearGradient
       id="grad5">
      <stop
         offset="0%"
         stop-color="#005ca5"
         stop-opacity="1.0000"
         id="stop24" />
      <stop
         offset="100%"
         stop-color="#ffffff"
         stop-opacity="1.0000"
         id="stop26" />
    </linearGradient>
    <linearGradient
       xlink:href="#grad5"
       id="grad6"
       x1="0"
       y1="0"
       x2="0"
       y2="1"
       gradientTransform="rotate(-2,0.5,0.5)"
       gradientUnits="objectBoundingBox" />
  </defs>
  <path
     d="m 392.5603,302.0044 13.0093,-94.0385 h 74.3387 l -4.0886,26.0185 h -40.5146 l -0.3717,8.1773 h 34.5675 l -3.717,23.4167 h -35.3106 l -0.7436,10.0357 h 40.1429 l -3.717,26.0186 c 0,0 -73.2236,0.7434 -73.5953,0.3717 z"
     style="fill:url(#grad6)"
     id="path32" />
  <defs
     id="defs40">
    <linearGradient
       id="grad7">
      <stop
         offset="0%"
         stop-color="#005ca5"
         stop-opacity="1.0000"
         id="stop34" />
      <stop
         offset="100%"
         stop-color="#ffffff"
         stop-opacity="1.0000"
         id="stop36" />
    </linearGradient>
    <linearGradient
       xlink:href="#grad7"
       id="grad8"
       x1="0"
       y1="0"
       x2="0"
       y2="1"
       gradientTransform="rotate(-2,0.5,0.5)"
       gradientUnits="objectBoundingBox" />
  </defs>
  <path
     d="m 486.2271,207.9659 -3.7169,26.0185 h 35.3109 l -43.8599,46.4618 -2.6019,21.9299 h 77.684 l 3.3453,-27.1337 h -32.7091 l 38.2845,-41.6297 3.3452,-25.6468 z"
     style="fill:url(#grad8)"
     id="path42" />
  <defs
     id="defs50">
    <linearGradient
       id="grad9">
      <stop
         offset="0%"
         stop-color="#005ca5"
         stop-opacity="1.0000"
         id="stop44" />
      <stop
         offset="100%"
         stop-color="#ffffff"
         stop-opacity="1.0000"
         id="stop46" />
    </linearGradient>
    <linearGradient
       xlink:href="#grad9"
       id="grad10"
       x1="0"
       y1="0"
       x2="0"
       y2="1"
       gradientTransform="rotate(-2,0.5,0.5)"
       gradientUnits="objectBoundingBox" />
  </defs>
  <path
     d="m 127.9144,211.6828 c -3.3453,8.3012 -6.6905,16.6023 -10.0358,24.9035 -50.4383,-20.5671 -62.7241,56.2494 -4.0886,36.426 0.9912,8.3011 1.9824,16.6023 2.9736,24.9035 C 7.6747,337.4626 15.7704,176.309 127.9144,211.6828 Z"
     style="fill:url(#grad10)"
     id="path52" />
  <path
     d="m 118.5219,314.2795 c -1.3364,9.422 -2.6727,18.8442 -4.009,28.2664 3.3748,0 6.7495,0 10.1242,0 0.4078,-2.9444 0.8154,-5.8888 1.2231,-8.8333 3.3126,8.4284 8.352,11.5031 15.2885,8.6974 0.2943,-2.3328 0.5887,-4.6657 0.8832,-6.9986 -3.2052,0.023 -5.674,-0.7472 -6.523,-3.2616 11.7704,-4.736 9.9691,-18.4282 -3.2049,-18.1034 -4.1244,0.1017 -8.6512,-0.163 -13.7821,0.2331 z m 8.9692,7.2704 c -0.2492,1.8799 -0.4305,3.556 -0.6796,5.4358 6.6998,0.842 8.4044,-5.7081 0.6796,-5.4358 z"
     style="fill:#ff001e;fill-rule:evenodd"
     id="path54" />
  <path
     d="m 406.5508,327.9578 c 6.706,-0.1749 6.4749,-5.8272 1.0113,-5.8272 h -0.4753 z m -12.3697,14.5106 3.8852,-27.5431 h 10.6089 c 4.065,0 7.1412,0.745 9.2349,2.2282 2.0875,1.4899 3.199,3.7249 3.3285,6.7108 0.4185,9.6486 -9.0028,11.4527 -16.2174,11.4527 l -0.8284,7.1514 z"
     style="fill:#ff001e;fill-rule:evenodd"
     id="path56" />
  <path
     d="m 231.6207,342.686 2.8894,-27.5431 h 10.6846 l 6.1951,14.2372 1.5771,-14.2372 h 9.1441 l -3.2796,27.5431 h -9.7113 l -6.8005,-14.0716 -1.5515,14.0716 z"
     style="fill:#ff001e;fill-rule:evenodd"
     id="path58" />
  <path
     d="m 100.4413,313.9227 c 8.3305,0 14.3989,6.5768 13.5514,14.6866 -0.8476,8.1098 -8.291,14.6867 -16.6213,14.6867 -8.3305,0 -14.3991,-6.5769 -13.5514,-14.6867 0.8476,-8.1098 8.291,-14.6866 16.6213,-14.6866 z m -1.3205,8.426 c 2.6926,-0.385 4.616,2.1944 4.2958,5.7605 -0.3207,3.5658 -2.7642,6.7697 -5.4566,7.155 -2.6931,0.385 -4.6165,-2.1944 -4.296,-5.7603 0.3205,-3.5659 2.7642,-6.77 5.4568,-7.1552 z"
     style="fill:#ff001e;fill-rule:evenodd"
     id="path60" />
  <path
     d="m 85.1854,315.6757 c -1.026,2.5002 -2.0521,5.0004 -3.0781,7.5006 -15.4705,-6.1946 -19.2388,16.9415 -1.2541,10.971 0.304,2.5002 0.608,5.0004 0.912,7.5006 -33.4598,11.9109 -30.9767,-36.6264 3.4202,-25.9722 z"
     style="fill:#ff001e;fill-rule:evenodd"
     id="path62" />
  <path
     d="m 154.642,314.8449 h 13.2379 l 4.2667,27.5698 h -10.1744 l -0.5471,-4.3762 h -7.7677 l -1.8598,4.4856 h -10.0652 z m 1.6133,16.561 h 4.3991 l -0.9511,-8.5604 c 0,0 -3.448,8.4415 -3.448,8.5604 z"
     style="fill:#ff001e;fill-rule:evenodd"
     id="path64" />
  <path
     d="m 216.2896,313.9227 c 8.3305,0 14.3988,6.5768 13.5514,14.6866 -0.8476,8.1098 -8.291,14.6867 -16.6213,14.6867 -8.3305,0 -14.3991,-6.5769 -13.5514,-14.6867 0.8476,-8.1098 8.291,-14.6866 16.6213,-14.6866 z m -1.3205,8.426 c 2.6926,-0.385 4.616,2.1944 4.2958,5.7605 -0.3207,3.5658 -2.7642,6.7697 -5.4566,7.155 -2.6931,0.385 -4.6165,-2.1944 -4.296,-5.7603 0.3204,-3.5659 2.7642,-6.77 5.4568,-7.1552 z"
     style="fill:#ff001e;fill-rule:evenodd"
     id="path66" />
  <path
     d="m 301.8387,342.5383 3.902,-28.2053 h 22.2966 l -1.2263,7.8038 h -12.1517 l -0.1115,2.4527 h 10.368 l -1.1149,7.0234 h -10.5908 l -0.223,3.01 h 12.0402 l -1.1149,7.8039 c 0,0 -21.9622,0.2229 -22.0737,0.1115 z"
     style="fill:#ff001e;fill-rule:evenodd"
     id="path68" />
  <path
     d="m 429.895,314.8449 h 13.2379 l 4.2667,27.5698 h -10.1744 l -0.5471,-4.3762 h -7.7677 l -1.8599,4.4856 h -10.0651 z m 1.6133,16.561 h 4.3991 l -0.9511,-8.5604 c 0,0 -3.448,8.4415 -3.448,8.5604 z"
     style="fill:#ff001e;fill-rule:evenodd"
     id="path70" />
  <path
     d="m 527.1794,314.8449 h 13.2379 l 4.2667,27.5698 h -10.1745 l -0.5471,-4.3762 h -7.7676 l -1.8599,4.4856 h -10.0651 z m 1.6133,16.561 h 4.3991 l -0.9512,-8.5604 c 0,0 -3.4479,8.4415 -3.4479,8.5604 z"
     style="fill:#ff001e;fill-rule:evenodd"
     id="path72" />
  <path
     d="m 476.7754,314.2795 c -1.3363,9.422 -2.6727,18.8442 -4.009,28.2664 3.3749,0 6.7495,0 10.1242,0 0.4078,-2.9444 0.8155,-5.8888 1.2231,-8.8333 3.3127,8.4284 8.352,11.5031 15.2885,8.6974 0.2944,-2.3328 0.5887,-4.6657 0.8833,-6.9986 -3.2053,0.023 -5.6741,-0.7472 -6.523,-3.2616 11.7703,-4.736 9.969,-18.4282 -3.2049,-18.1034 -4.1245,0.1017 -8.6512,-0.163 -13.7822,0.2331 z m 8.9692,7.2704 c -0.2491,1.8799 -0.4304,3.556 -0.6796,5.4358 6.6999,0.842 8.4045,-5.7081 0.6796,-5.4358 z"
     style="fill:#ff001e;fill-rule:evenodd"
     id="path74" />
  <path
     d="m 336.5781,342.6515 h 9.9631 l 1.4092,-14.03 4.8115,8.4765 6.075,-8.1356 -1.5067,13.6403 9.5742,-0.0976 3.6937,-27.7189 -10.206,0.0486 -6.2207,8.9637 -3.3534,-9.1097 h -10.449 z"
     style="fill:#ff001e;fill-rule:evenodd"
     id="path76" />
  <path
     d="m 374.5717,314.8061 h 10.4485 l -3.7578,27.771 h -10.265 c 0,0 3.391,-27.771 3.5743,-27.771 z"
     style="fill:#ff001e;fill-rule:evenodd"
     id="path78" />
  <path
     d="m 177.4179,315.0801 h 21.9992 l -0.4191,6.668 -11.7853,13.021 h 9.3758 l -0.7333,7.6655 h -22.8895 v -5.5654 l 13.6184,-13.9135 h -10.2139 z"
     style="fill:#ff001e;fill-rule:evenodd"
     id="path80" />
  <path
     d="m 275.6687,314.4958 -3.9411,28.1575 15.5864,0.0245 c 14.311,0.0225 20.4756,-25.6252 1.754,-28.033 -3.5948,-0.4622 -8.439,-0.2433 -13.3993,-0.149 z m 9.1642,7.4073 c -0.6804,4.5109 -1.1711,9.0693 -1.8518,13.5802 9.2488,0.4422 11.1654,-13.5276 1.8518,-13.5802 z"
     style="fill:#ff001e;fill-rule:evenodd"
     id="path82" />
  <path
     d="m 505.8571,314.8061 h 10.4485 l -3.7578,27.771 h -10.265 c 0,0 3.391,-27.771 3.5743,-27.771 z"
     style="fill:#ff001e;fill-rule:evenodd"
     id="path84" />
  <defs
     id="defs92">
    <linearGradient
       id="grad11">
      <stop
         offset="0%"
         stop-color="#4c638b"
         stop-opacity="1.0000"
         id="stop86" />
      <stop
         offset="100%"
         stop-color="#ffffff"
         stop-opacity="1.0000"
         id="stop88" />
    </linearGradient>
    <linearGradient
       xlink:href="#grad11"
       id="grad12"
       x1="0"
       y1="0"
       x2="0"
       y2="1"
       gradientTransform="rotate(24,0.5,0.5)"
       gradientUnits="objectBoundingBox" />
  </defs>
  <path
     d="m 365.0309,208.706 c 17.5743,-25.4769 61.1303,-24.0066 62.7886,13.5528 -3.5132,46.0584 -55.2295,79.057 -70.7969,82.0023 -14.8723,0.5256 -62.795,-35.7257 -57.2524,-80.7687 2.2618,-37.7137 50.9325,-42.2335 65.2607,-14.7864 z"
     style="fill:url(#grad12);fill-opacity:0"
     id="path94" />
  <path
     d="m 456.5523,314.8061 h 10.4485 l -2e-4,0.002 h 7.8639 l -1.0376,7.5753 h -7.8513 l -2.7326,20.194 h -10.2649 c 0,0 1.4618,-11.9717 2.5177,-20.194 h -7.3844 l 1.0375,-7.5753 h 7.4026 z"
     style="fill:#ff001e;fill-rule:evenodd"
     id="path96" />
  <defs
     id="defs104">
    <linearGradient
       id="grad13">
      <stop
         offset="0%"
         stop-color="#ffec00"
         stop-opacity="1.0000"
         id="stop98" />
      <stop
         offset="100%"
         stop-color="#ffffff"
         stop-opacity="1.0000"
         id="stop100" />
    </linearGradient>
    <linearGradient
       xlink:href="#grad13"
       id="grad14"
       x1="0"
       y1="0"
       x2="0"
       y2="1"
       gradientTransform="rotate(-131,0.5,0.5)"
       gradientUnits="objectBoundingBox" />
  </defs>
  <path
     d="m 356.6953,208.706 c 15.3518,-25.4769 59.0361,-24.0066 63.9708,13.5528 0.5047,46.0584 -48.333,79.057 -63.6435,82.0023 -14.8265,0.5256 -65.9115,-35.7257 -64.2982,-80.7687 -1.0281,-37.7137 47.2484,-42.2335 63.9709,-14.7864 z"
     style="fill:url(#grad14)"
     id="path106" />
  <path
     d="m 382.343,205.158 -1.6944,9.6821 -10.5293,2.1785 9.6821,7.1406 0.6052,11.3765 8.5929,-6.2934 11.0134,4.8411 -4.72,-10.8924 5.3252,-7.7458 -11.1345,-1.0892 z"
     style="fill:#ffffff;fill-rule:evenodd"
     id="path108" />
  <path
     d="m 214.5261,312.3977 h 5.7043 l 4.612,-5.0975 h -7.4034 z"
     style="fill:#ff001e;fill-rule:evenodd"
     id="path110" />
  <path
     d="m 417.8356,353.5792 -2.9951,-7.7504 h 1.1114 l 2.0135,5.6324 c 0.1604,0.451 0.2976,0.8731 0.4059,1.2682 0.1191,-0.4238 0.258,-0.8461 0.4167,-1.2682 l 2.0891,-5.6324 h 1.0466 l -3.022,7.7504 z m 8.1275,-1.8184 0.985,0.1298 c -0.1534,0.5718 -0.4402,1.0174 -0.8589,1.3332 -0.4187,0.3158 -0.9524,0.4745 -1.6038,0.4745 -0.819,0 -1.4687,-0.2526 -1.9486,-0.7577 -0.4799,-0.5034 -0.7197,-1.2124 -0.7197,-2.1234 0,-0.9417 0.2418,-1.6742 0.7271,-2.1938 0.4853,-0.5215 1.1149,-0.7812 1.8887,-0.7812 0.7489,0 1.3604,0.2543 1.8349,0.7648 0.4745,0.5108 0.7126,1.2288 0.7126,2.1543 0,0.0559 -0.002,0.1406 -0.005,0.2526 h -4.1836 c 0.036,0.6151 0.2092,1.0876 0.523,1.4142 0.3123,0.3265 0.7038,0.491 1.171,0.491 0.348,0 0.646,-0.0922 0.8912,-0.2761 0.2471,-0.184 0.4419,-0.4782 0.5865,-0.8822 z m -3.1176,-1.5264 h 3.1283 c -0.0416,-0.4726 -0.1624,-0.8263 -0.3591,-1.0625 -0.3013,-0.3662 -0.6945,-0.5505 -1.1761,-0.5505 -0.4368,0 -0.8031,0.1463 -1.1007,0.4386 -0.2959,0.2922 -0.4601,0.6837 -0.4924,1.1744 z m 8.9754,1.288 0.9308,0.1301 c -0.1028,0.6404 -0.3625,1.1401 -0.7829,1.5027 -0.4204,0.3628 -0.9382,0.5431 -1.5497,0.5431 -0.7668,0 -1.3839,-0.2509 -1.8493,-0.7523 -0.4672,-0.5015 -0.7002,-1.2195 -0.7002,-2.1541 0,-0.6063 0.1012,-1.1347 0.3014,-1.5893 0.2004,-0.453 0.5051,-0.794 0.9167,-1.0194 0.4093,-0.2273 0.8549,-0.341 1.3385,-0.341 0.608,0 1.1078,0.1534 1.4939,0.4618 0.3877,0.3087 0.6366,0.7469 0.7449,1.3135 l -0.9201,0.1406 c -0.0882,-0.377 -0.2435,-0.6601 -0.4689,-0.8515 -0.2239,-0.1893 -0.4943,-0.2852 -0.8118,-0.2852 -0.4799,0 -0.8697,0.1715 -1.171,0.5143 -0.2993,0.3446 -0.4493,0.8858 -0.4493,1.629 0,0.7543 0.1443,1.3008 0.4331,1.6419 0.2903,0.341 0.6676,0.5125 1.1311,0.5125 0.3753,0 0.6874,-0.1137 0.9365,-0.343 0.2506,-0.2274 0.4094,-0.5792 0.4763,-1.0537 z m 3.81,1.207 0.1298,0.8408 c -0.267,0.0558 -0.5068,0.0847 -0.716,0.0847 -0.3447,0 -0.6117,-0.0541 -0.8031,-0.1641 -0.1893,-0.11 -0.3228,-0.2526 -0.4005,-0.4311 -0.0774,-0.1786 -0.1154,-0.5539 -0.1154,-1.1257 v -3.2366 h -0.7035 v -0.7361 h 0.7035 v -1.3893 l 0.9528,-0.5717 v 1.961 h 0.9524 v 0.7361 h -0.9524 v 3.2908 c 0,0.2724 0.0161,0.4473 0.0504,0.5249 0.0323,0.0774 0.0865,0.1389 0.1624,0.1857 0.0757,0.0451 0.184,0.0686 0.3246,0.0686 0.1046,0 0.2435,-0.0128 0.415,-0.038 z m 0.5828,-1.9593 c 0,-1.0372 0.2886,-1.8057 0.8677,-2.3054 0.4819,-0.415 1.0718,-0.6225 1.7663,-0.6225 0.7704,0 1.402,0.2526 1.8926,0.7577 0.4887,0.5034 0.7342,1.2016 0.7342,2.0908 0,0.7217 -0.1083,1.2884 -0.3248,1.7014 -0.2163,0.4133 -0.5321,0.7345 -0.9471,0.9635 -0.413,0.229 -0.866,0.3427 -1.3549,0.3427 -0.7867,0 -1.4216,-0.2509 -1.9069,-0.754 -0.4853,-0.5034 -0.7271,-1.2288 -0.7271,-2.1742 z m 0.9743,0.002 c 0,0.718 0.157,1.2557 0.4708,1.6109 0.3158,0.3575 0.7109,0.5361 1.1889,0.5361 0.4728,0 0.8659,-0.1786 1.1817,-0.5378 0.3141,-0.3591 0.4709,-0.9056 0.4709,-1.6398 0,-0.6928 -0.1588,-1.2178 -0.4746,-1.5732 -0.3155,-0.3572 -0.7089,-0.5358 -1.178,-0.5358 -0.478,0 -0.8731,0.1766 -1.1889,0.5321 -0.3138,0.3554 -0.4708,0.8912 -0.4708,1.6075 z m 5.3923,2.8071 v -5.6179 h 0.8552 v 0.8606 c 0.2183,-0.3989 0.4204,-0.6622 0.6061,-0.7884 0.1859,-0.1281 0.3897,-0.1913 0.6117,-0.1913 0.3212,0 0.6477,0.1009 0.9796,0.3013 l -0.3393,0.8785 c -0.2307,-0.1298 -0.4617,-0.1948 -0.6927,-0.1948 -0.2075,0 -0.3932,0.0633 -0.5573,0.1877 -0.1642,0.1244 -0.2815,0.2976 -0.3518,0.5196 -0.1066,0.3373 -0.1588,0.7072 -0.1588,1.1095 v 2.9352 z m 3.6153,-6.6679 v -1.0825 h 0.9527 v 1.0825 z m 0,6.6679 v -5.6179 h 0.9527 v 5.6179 z m 1.9018,0 v -0.7758 l 3.5575,-4.106 c -0.404,0.0216 -0.7594,0.0323 -1.0661,0.0323 h -2.2751 v -0.7684 h 4.5788 v 0.6258 l -3.0453,3.5615 -0.5828,0.6622 c 0.4278,-0.0363 0.8283,-0.0542 1.2016,-0.0542 h 2.5997 v 0.8226 z m 9.5851,-0.7035 c -0.3538,0.3013 -0.6948,0.5122 -1.0214,0.6369 -0.3265,0.1245 -0.6763,0.1857 -1.0516,0.1857 -0.6171,0 -1.0916,-0.1497 -1.4236,-0.451 -0.3319,-0.2996 -0.4977,-0.6837 -0.4977,-1.1511 0,-0.2742 0.0629,-0.525 0.1876,-0.7524 0.1262,-0.2273 0.2903,-0.4076 0.4924,-0.5448 0.2038,-0.1369 0.4311,-0.2418 0.6857,-0.3121 0.1876,-0.0487 0.4708,-0.0955 0.8478,-0.1426 0.7685,-0.0901 1.3369,-0.2001 1.6994,-0.3265 0.004,-0.1298 0.005,-0.2129 0.005,-0.2469 0,-0.3861 -0.0902,-0.6588 -0.2704,-0.8175 -0.2435,-0.2146 -0.6064,-0.3209 -1.0863,-0.3209 -0.449,0 -0.7812,0.0794 -0.9941,0.2361 -0.2146,0.1571 -0.3716,0.4349 -0.4742,0.8354 l -0.9309,-0.1298 c 0.0847,-0.3989 0.2236,-0.7217 0.4184,-0.9672 0.1947,-0.2452 0.4762,-0.4329 0.8444,-0.5664 0.3663,-0.1318 0.7937,-0.1984 1.2773,-0.1984 0.4799,0 0.8714,0.0558 1.1727,0.1695 0.2993,0.1137 0.5213,0.2546 0.6619,0.4258 0.1409,0.1715 0.2401,0.388 0.2979,0.6494 0.0306,0.1624 0.0468,0.4547 0.0468,0.8751 v 1.2628 c 0,0.8824 0.0198,1.4397 0.0595,1.6761 0.038,0.2364 0.1174,0.4618 0.2327,0.6783 h -0.9958 c -0.0955,-0.2001 -0.157,-0.4348 -0.1839,-0.7035 z m -0.076,-2.111 c -0.3464,0.1409 -0.866,0.26 -1.5588,0.3575 -0.3931,0.0558 -0.6709,0.119 -0.8334,0.1893 -0.1624,0.0703 -0.2868,0.1732 -0.3753,0.3067 -0.0884,0.1352 -0.1335,0.2849 -0.1335,0.451 0,0.2509 0.0958,0.4618 0.2889,0.6296 0.193,0.1678 0.4742,0.2526 0.8441,0.2526 0.3663,0 0.6928,-0.0794 0.9797,-0.2398 0.2851,-0.1588 0.496,-0.3773 0.6295,-0.6531 0.1029,-0.2149 0.1534,-0.5304 0.1534,-0.9474 z m 6.0528,2.8145 v -0.7126 c -0.3555,0.5539 -0.8787,0.8317 -1.5695,0.8317 -0.4476,0 -0.8589,-0.1227 -1.2323,-0.3699 -0.3753,-0.2452 -0.6658,-0.5899 -0.873,-1.0301 -0.2058,-0.442 -0.3087,-0.9491 -0.3087,-1.5225 0,-0.5593 0.0938,-1.0664 0.2798,-1.5228 0.1876,-0.4547 0.4671,-0.8047 0.8407,-1.0463 0.3716,-0.2437 0.79,-0.3645 1.2501,-0.3645 0.3393,0 0.6406,0.072 0.904,0.2146 0.2633,0.1426 0.4779,0.3302 0.644,0.5593 v -2.7873 h 0.9524 v 7.7504 z m -3.0093,-2.8017 c 0,0.718 0.1517,1.2537 0.4564,1.6092 0.303,0.3555 0.6622,0.5324 1.0752,0.5324 0.417,0 0.7705,-0.1698 1.0627,-0.5089 0.2906,-0.3393 0.4366,-0.8569 0.4366,-1.5533 0,-0.7651 -0.148,-1.3278 -0.4457,-1.6869 -0.2956,-0.3589 -0.6618,-0.5375 -1.0967,-0.5375 -0.424,0 -0.7775,0.1712 -1.0627,0.5159 -0.2832,0.3444 -0.4258,0.8875 -0.4258,1.6291 z m 5.046,-0.007 c 0,-1.0372 0.2886,-1.8057 0.8677,-2.3054 0.4819,-0.415 1.0718,-0.6225 1.7663,-0.6225 0.7704,0 1.402,0.2526 1.8926,0.7577 0.4887,0.5034 0.7342,1.2016 0.7342,2.0908 0,0.7217 -0.1083,1.2884 -0.3248,1.7014 -0.2163,0.4133 -0.5321,0.7345 -0.9471,0.9635 -0.413,0.229 -0.866,0.3427 -1.3549,0.3427 -0.7867,0 -1.4216,-0.2509 -1.9069,-0.754 -0.4853,-0.5034 -0.7271,-1.2288 -0.7271,-2.1742 z m 0.9743,0.002 c 0,0.718 0.157,1.2557 0.4708,1.6109 0.3158,0.3575 0.7109,0.5361 1.1889,0.5361 0.4728,0 0.8659,-0.1786 1.1817,-0.5378 0.3141,-0.3591 0.4709,-0.9056 0.4709,-1.6398 0,-0.6928 -0.1588,-1.2178 -0.4746,-1.5732 -0.3155,-0.3572 -0.7089,-0.5358 -1.178,-0.5358 -0.478,0 -0.8731,0.1766 -1.1889,0.5321 -0.3138,0.3554 -0.4708,0.8912 -0.4708,1.6075 z m 8.6706,-1.7283 v -1.0825 h 1.0825 v 1.0825 z m 0,4.5354 v -1.0825 h 1.0825 v 1.0825 z m 5.8311,0 v -7.7504 h 1.0282 v 6.8411 h 3.8103 v 0.9093 z m 9.7764,-1.8184 0.9851,0.1298 c -0.1534,0.5718 -0.4402,1.0174 -0.8589,1.3332 -0.4187,0.3158 -0.9525,0.4745 -1.6039,0.4745 -0.8189,0 -1.4686,-0.2526 -1.9485,-0.7577 -0.4799,-0.5034 -0.7197,-1.2124 -0.7197,-2.1234 0,-0.9417 0.2418,-1.6742 0.7271,-2.1938 0.4853,-0.5215 1.1148,-0.7812 1.8887,-0.7812 0.7489,0 1.3603,0.2543 1.8349,0.7648 0.4745,0.5108 0.7126,1.2288 0.7126,2.1543 0,0.0559 -0.002,0.1406 -0.005,0.2526 h -4.1836 c 0.036,0.6151 0.2092,1.0876 0.5229,1.4142 0.3124,0.3265 0.7039,0.491 1.171,0.491 0.3481,0 0.6461,-0.0922 0.8913,-0.2761 0.2471,-0.184 0.4419,-0.4782 0.5864,-0.8822 z m -3.1175,-1.5264 h 3.1283 c -0.0417,-0.4726 -0.1624,-0.8263 -0.3591,-1.0625 -0.3014,-0.3662 -0.6945,-0.5505 -1.1761,-0.5505 -0.4369,0 -0.8031,0.1463 -1.1007,0.4386 -0.296,0.2922 -0.4601,0.6837 -0.4924,1.1744 z m 5.3056,3.3448 v -5.6179 h 0.8552 v 0.7973 c 0.4113,-0.6117 1.0069,-0.9164 1.7844,-0.9164 0.339,0 0.6494,0.0612 0.9326,0.1823 0.2832,0.1207 0.4961,0.2815 0.637,0.4779 0.1406,0.1967 0.2398,0.4311 0.2956,0.7019 0.0343,0.1768 0.0525,0.4852 0.0525,0.9255 v 3.4494 h -0.9525 v -3.4134 c 0,-0.3878 -0.0363,-0.6784 -0.1102,-0.8694 -0.074,-0.1914 -0.2056,-0.3447 -0.3932,-0.4601 -0.1877,-0.1137 -0.4096,-0.1715 -0.6622,-0.1715 -0.4042,0 -0.7523,0.1281 -1.0463,0.3861 -0.2942,0.2562 -0.4402,0.7452 -0.4402,1.4632 v 3.0651 z m 6.0202,-6.6679 v -1.0825 h 0.9527 v 1.0825 z m 0,6.6679 v -5.6179 h 0.9527 v 5.6179 z m 2.4049,0 v -5.6179 h 0.8553 v 0.7973 c 0.4113,-0.6117 1.0068,-0.9164 1.7844,-0.9164 0.339,0 0.6494,0.0612 0.9326,0.1823 0.2831,0.1207 0.496,0.2815 0.6369,0.4779 0.1406,0.1967 0.2398,0.4311 0.2957,0.7019 0.0343,0.1768 0.0524,0.4852 0.0524,0.9255 v 3.4494 h -0.9524 v -3.4134 c 0,-0.3878 -0.0363,-0.6784 -0.1103,-0.8694 -0.074,-0.1914 -0.2055,-0.3447 -0.3932,-0.4601 -0.1876,-0.1137 -0.4096,-0.1715 -0.6621,-0.1715 -0.4043,0 -0.7524,0.1281 -1.0463,0.3861 -0.2943,0.2562 -0.4402,0.7452 -0.4402,1.4632 v 3.0651 z m 9.1253,0 v -7.7504 h 1.5373 l 1.8328,5.4864 c 0.1696,0.5105 0.2923,0.8929 0.37,1.1472 0.0881,-0.2812 0.2273,-0.6962 0.4147,-1.243 l 1.8654,-5.3906 h 1.3732 v 7.7504 h -0.9851 v -6.4839 l -2.2623,6.4839 h -0.9238 l -2.2371,-6.603 v 6.603 z m 8.9195,-6.6679 v -1.0825 h 0.9527 v 1.0825 z m 0,6.6679 v -5.6179 h 0.9527 v 5.6179 z m 2.3942,0 v -5.6179 h 0.8552 v 0.8606 c 0.2182,-0.3989 0.4204,-0.6622 0.606,-0.7884 0.186,-0.1281 0.3898,-0.1913 0.6117,-0.1913 0.3212,0 0.6478,0.1009 0.9797,0.3013 l -0.3393,0.8785 c -0.2308,-0.1298 -0.4618,-0.1948 -0.6928,-0.1948 -0.2075,0 -0.3932,0.0633 -0.5573,0.1877 -0.1641,0.1244 -0.2815,0.2976 -0.3518,0.5196 -0.1066,0.3373 -0.1587,0.7072 -0.1587,1.1095 v 2.9352 z m 7.285,-0.7035 c -0.3538,0.3013 -0.6948,0.5122 -1.0213,0.6369 -0.3266,0.1245 -0.6764,0.1857 -1.0517,0.1857 -0.6171,0 -1.0916,-0.1497 -1.4235,-0.451 -0.332,-0.2996 -0.4978,-0.6837 -0.4978,-1.1511 0,-0.2742 0.0629,-0.525 0.1877,-0.7524 0.1261,-0.2273 0.2902,-0.4076 0.4923,-0.5448 0.2038,-0.1369 0.4312,-0.2418 0.6857,-0.3121 0.1877,-0.0487 0.4709,-0.0955 0.8479,-0.1426 0.7685,-0.0901 1.3368,-0.2001 1.6994,-0.3265 0.004,-0.1298 0.005,-0.2129 0.005,-0.2469 0,-0.3861 -0.0901,-0.6588 -0.2704,-0.8175 -0.2435,-0.2146 -0.6063,-0.3209 -1.0862,-0.3209 -0.449,0 -0.7813,0.0794 -0.9941,0.2361 -0.2146,0.1571 -0.3717,0.4349 -0.4743,0.8354 l -0.9309,-0.1298 c 0.0848,-0.3989 0.2237,-0.7217 0.4184,-0.9672 0.1948,-0.2452 0.4762,-0.4329 0.8445,-0.5664 0.3662,-0.1318 0.7937,-0.1984 1.2773,-0.1984 0.4799,0 0.8713,0.0558 1.1727,0.1695 0.2993,0.1137 0.5212,0.2546 0.6618,0.4258 0.1409,0.1715 0.2401,0.388 0.298,0.6494 0.0306,0.1624 0.0467,0.4547 0.0467,0.8751 v 1.2628 c 0,0.8824 0.0199,1.4397 0.0596,1.6761 0.0379,0.2364 0.1173,0.4618 0.2327,0.6783 h -0.9958 c -0.0956,-0.2001 -0.1571,-0.4348 -0.184,-0.7035 z m -0.076,-2.111 c -0.3464,0.1409 -0.8659,0.26 -1.5587,0.3575 -0.3932,0.0558 -0.671,0.119 -0.8334,0.1893 -0.1624,0.0703 -0.2869,0.1732 -0.3753,0.3067 -0.0885,0.1352 -0.1335,0.2849 -0.1335,0.451 0,0.2509 0.0958,0.4618 0.2888,0.6296 0.1931,0.1678 0.4742,0.2526 0.8442,0.2526 0.3662,0 0.6928,-0.0794 0.9796,-0.2398 0.2852,-0.1588 0.4961,-0.3773 0.6296,-0.6531 0.1029,-0.2149 0.1534,-0.5304 0.1534,-0.9474 z m 3.3033,2.8145 h -0.8876 v -7.7504 h 0.9527 v 2.7657 c 0.4023,-0.5014 0.9145,-0.7523 1.539,-0.7523 0.3444,0 0.6726,0.0686 0.9813,0.2075 0.3084,0.1389 0.561,0.3356 0.7614,0.5862 0.1984,0.2526 0.3552,0.5559 0.4672,0.9111 0.1136,0.3537 0.1695,0.7344 0.1695,1.1384 0,0.9598 -0.2381,1.703 -0.7127,2.2263 -0.4762,0.525 -1.0462,0.7866 -1.7121,0.7866 -0.6619,0 -1.1815,-0.2761 -1.5587,-0.8263 z m -0.0108,-2.8505 c 0,0.6713 0.0921,1.1566 0.2744,1.4559 0.2993,0.489 0.7035,0.7345 1.2141,0.7345 0.4166,0 0.7758,-0.1806 1.0771,-0.5415 0.303,-0.3608 0.4544,-0.8983 0.4544,-1.6129 0,-0.7324 -0.1443,-1.2719 -0.4345,-1.62 -0.2906,-0.3481 -0.6424,-0.5233 -1.0537,-0.5233 -0.4167,0 -0.7758,0.1806 -1.0771,0.5415 -0.3031,0.3608 -0.4547,0.8821 -0.4547,1.5658 z m 8.8239,2.147 c -0.3537,0.3013 -0.6947,0.5122 -1.0213,0.6369 -0.3265,0.1245 -0.6763,0.1857 -1.0516,0.1857 -0.6171,0 -1.0917,-0.1497 -1.4236,-0.451 -0.3319,-0.2996 -0.4978,-0.6837 -0.4978,-1.1511 0,-0.2742 0.063,-0.525 0.1877,-0.7524 0.1261,-0.2273 0.2903,-0.4076 0.4924,-0.5448 0.2038,-0.1369 0.4311,-0.2418 0.6857,-0.3121 0.1876,-0.0487 0.4708,-0.0955 0.8478,-0.1426 0.7685,-0.0901 1.3368,-0.2001 1.6994,-0.3265 0.004,-0.1298 0.005,-0.2129 0.005,-0.2469 0,-0.3861 -0.0902,-0.6588 -0.2704,-0.8175 -0.2435,-0.2146 -0.6064,-0.3209 -1.0863,-0.3209 -0.449,0 -0.7812,0.0794 -0.9941,0.2361 -0.2146,0.1571 -0.3716,0.4349 -0.4742,0.8354 l -0.9309,-0.1298 c 0.0847,-0.3989 0.2236,-0.7217 0.4184,-0.9672 0.1947,-0.2452 0.4762,-0.4329 0.8444,-0.5664 0.3662,-0.1318 0.7937,-0.1984 1.2773,-0.1984 0.4799,0 0.8714,0.0558 1.1727,0.1695 0.2993,0.1137 0.5213,0.2546 0.6619,0.4258 0.1409,0.1715 0.2401,0.388 0.2979,0.6494 0.0306,0.1624 0.0468,0.4547 0.0468,0.8751 v 1.2628 c 0,0.8824 0.0198,1.4397 0.0595,1.6761 0.038,0.2364 0.1174,0.4618 0.2327,0.6783 H 541.51 c -0.0955,-0.2001 -0.157,-0.4348 -0.184,-0.7035 z m -0.0759,-2.111 c -0.3464,0.1409 -0.866,0.26 -1.5588,0.3575 -0.3932,0.0558 -0.671,0.119 -0.8334,0.1893 -0.1624,0.0703 -0.2868,0.1732 -0.3753,0.3067 -0.0884,0.1352 -0.1335,0.2849 -0.1335,0.451 0,0.2509 0.0958,0.4618 0.2889,0.6296 0.193,0.1678 0.4742,0.2526 0.8441,0.2526 0.3662,0 0.6928,-0.0794 0.9797,-0.2398 0.2851,-0.1588 0.496,-0.3773 0.6295,-0.6531 0.1029,-0.2149 0.1534,-0.5304 0.1534,-0.9474 z m 2.4049,2.8145 v -7.7504 h 0.9524 v 7.7504 z"
     style="fill:#1b1918;fill-rule:evenodd"
     id="path112" />
</svg>
